<svg xmlns="http://www.w3.org/2000/svg" xmlns:xlink="http://www.w3.org/1999/xlink" width="500" zoomAndPan="magnify" viewBox="0 0 375 374.999991" height="500" preserveAspectRatio="xMidYMid meet" version="1.0"><defs><g/><clipPath id="0b7c15f432"><path d="M 196 13 L 310 13 L 310 107 L 196 107 Z M 196 13 " clip-rule="nonzero"/></clipPath><clipPath id="f72b4ac215"><path d="M 210.605469 119.867188 L 196.300781 13.753906 L 296.351562 0.269531 L 310.652344 106.382812 Z M 210.605469 119.867188 " clip-rule="nonzero"/></clipPath><clipPath id="4afe352a2e"><path d="M 210.605469 119.867188 L 196.300781 13.753906 L 296.351562 0.269531 L 310.652344 106.382812 Z M 210.605469 119.867188 " clip-rule="nonzero"/></clipPath></defs><g fill="#000000" fill-opacity="1"><g transform="translate(5.417683, 339.765909)"><g><path d="M 110.234375 7.96875 C 91.546875 7.96875 74.710938 5.046875 59.734375 -0.796875 C 44.765625 -6.640625 32.660156 -15.238281 23.421875 -26.59375 C 14.179688 -37.957031 8.710938 -51.816406 7.015625 -68.171875 L 56.703125 -77.421875 C 58.410156 -63.828125 64.359375 -52.941406 74.546875 -44.765625 C 84.742188 -36.585938 97.382812 -32.5 112.46875 -32.5 C 126.0625 -32.5 136.785156 -35.3125 144.640625 -40.9375 C 152.492188 -46.5625 156.421875 -53.726562 156.421875 -62.4375 C 156.421875 -69.445312 153.445312 -75.128906 147.5 -79.484375 C 141.5625 -83.835938 131.898438 -87.394531 118.515625 -90.15625 L 86.96875 -96.21875 C 61.90625 -101.101562 43.585938 -108.75 32.015625 -119.15625 C 20.441406 -129.5625 14.65625 -143.6875 14.65625 -161.53125 C 14.65625 -176.394531 18.53125 -189.296875 26.28125 -200.234375 C 34.03125 -211.171875 44.753906 -219.664062 58.453125 -225.71875 C 72.160156 -231.769531 87.722656 -234.796875 105.140625 -234.796875 C 121.066406 -234.796875 135.453125 -232.085938 148.296875 -226.671875 C 161.148438 -221.265625 171.664062 -213.675781 179.84375 -203.90625 C 188.019531 -194.132812 193.066406 -182.660156 194.984375 -169.484375 L 146.234375 -158.65625 C 144.742188 -169.695312 140.175781 -178.457031 132.53125 -184.9375 C 124.882812 -191.414062 115.539062 -194.65625 104.5 -194.65625 C 93.457031 -194.65625 84.640625 -192 78.046875 -186.6875 C 71.460938 -181.382812 68.171875 -174.695312 68.171875 -166.625 C 68.171875 -159.820312 70.878906 -154.40625 76.296875 -150.375 C 81.710938 -146.34375 90.265625 -143.15625 101.953125 -140.8125 L 134.125 -134.765625 C 160.039062 -130.515625 179.050781 -122.972656 191.15625 -112.140625 C 203.257812 -101.304688 209.3125 -86.648438 209.3125 -68.171875 C 209.3125 -52.460938 205.113281 -38.867188 196.71875 -27.390625 C 188.332031 -15.921875 176.707031 -7.160156 161.84375 -1.109375 C 146.976562 4.941406 129.773438 7.96875 110.234375 7.96875 Z M 110.234375 7.96875 "/></g></g></g><g fill="#000000" fill-opacity="1"><g transform="translate(171.397469, 339.765909)"><g><path d="M 79.96875 4.78125 C 65.738281 4.78125 53.15625 1.171875 42.21875 -6.046875 C 31.28125 -13.273438 22.726562 -23.363281 16.5625 -36.3125 C 10.40625 -49.269531 7.328125 -64.351562 7.328125 -81.5625 C 7.328125 -98.976562 10.40625 -114.109375 16.5625 -126.953125 C 22.726562 -139.804688 31.28125 -149.84375 42.21875 -157.0625 C 53.15625 -164.289062 65.738281 -167.90625 79.96875 -167.90625 C 105.875 -167.90625 124.671875 -155.898438 136.359375 -131.890625 L 136.671875 -131.890625 L 136.671875 -236.390625 L 185.421875 -236.390625 L 185.421875 0 L 144.640625 0 L 137.3125 -31.21875 L 137 -31.21875 C 131.257812 -19.539062 123.503906 -10.617188 113.734375 -4.453125 C 103.960938 1.703125 92.707031 4.78125 79.96875 4.78125 Z M 97.171875 -36.3125 C 105.242188 -36.3125 112.410156 -38.328125 118.671875 -42.359375 C 124.941406 -46.398438 129.828125 -51.816406 133.328125 -58.609375 C 136.835938 -65.410156 138.59375 -73.0625 138.59375 -81.5625 C 138.59375 -94.519531 134.710938 -105.296875 126.953125 -113.890625 C 119.203125 -122.492188 109.273438 -126.796875 97.171875 -126.796875 C 85.273438 -126.796875 75.394531 -122.492188 67.53125 -113.890625 C 59.675781 -105.296875 55.75 -94.519531 55.75 -81.5625 C 55.75 -68.601562 59.675781 -57.820312 67.53125 -49.21875 C 75.394531 -40.613281 85.273438 -36.3125 97.171875 -36.3125 Z M 97.171875 -36.3125 "/></g></g></g><path fill="#000000" d="M 111.28125 100.164062 C 111.28125 100.164062 114.28125 94.976562 119.425781 89.921875 C 126.699219 82.773438 130.449219 80.882812 139.105469 75.363281 C 148.964844 69.070312 154.453125 67.878906 165.398438 59.378906 C 169.046875 56.542969 176.90625 46.511719 176.90625 46.511719 C 176.90625 46.511719 195.320312 73.125 173.5 86.792969 C 151.675781 100.457031 128.691406 102.28125 121.390625 100.9375 C 114.09375 99.59375 111.28125 100.164062 111.28125 100.164062 " fill-opacity="1" fill-rule="nonzero"/><path fill="#000000" d="M 111.410156 100.085938 C 111.941406 100 112.472656 99.960938 113.003906 99.941406 C 113.582031 99.921875 114.164062 99.921875 114.742188 99.945312 C 115.902344 99.984375 117.054688 100.082031 118.207031 100.210938 C 119.355469 100.335938 120.507812 100.515625 121.640625 100.691406 C 122.761719 100.859375 123.90625 100.921875 125.046875 100.949219 C 127.335938 100.988281 129.628906 100.84375 131.910156 100.605469 C 134.1875 100.359375 136.460938 100.039062 138.714844 99.617188 C 140.96875 99.199219 143.210938 98.695312 145.429688 98.113281 C 147.648438 97.535156 149.839844 96.859375 152.015625 96.140625 C 154.1875 95.417969 156.34375 94.628906 158.460938 93.746094 C 160.574219 92.863281 162.671875 91.945312 164.726562 90.929688 C 166.777344 89.910156 168.808594 88.832031 170.78125 87.6875 C 171.277344 87.414062 171.769531 87.101562 172.261719 86.808594 L 173.003906 86.363281 C 173.242188 86.226562 173.476562 86.058594 173.714844 85.910156 C 174.195312 85.613281 174.644531 85.273438 175.105469 84.949219 C 175.554688 84.605469 176.003906 84.265625 176.425781 83.894531 C 177.28125 83.167969 178.089844 82.382812 178.828125 81.535156 C 179.558594 80.6875 180.222656 79.777344 180.804688 78.820312 C 181.96875 76.90625 182.777344 74.785156 183.230469 72.582031 C 183.679688 70.375 183.773438 68.09375 183.597656 65.832031 C 183.417969 63.570312 182.992188 61.316406 182.367188 59.121094 C 181.75 56.917969 180.941406 54.769531 179.996094 52.679688 C 179.523438 51.636719 179.011719 50.605469 178.472656 49.59375 C 177.929688 48.585938 177.355469 47.585938 176.722656 46.636719 L 177.078125 46.648438 C 175.964844 48.050781 174.835938 49.433594 173.6875 50.808594 C 172.535156 52.179688 171.375 53.539062 170.183594 54.871094 C 168.984375 56.203125 167.773438 57.519531 166.441406 58.734375 C 165.777344 59.359375 165.042969 59.871094 164.335938 60.417969 C 163.632812 60.96875 162.90625 61.492188 162.183594 62.015625 L 161.636719 62.414062 L 161.085938 62.796875 L 159.988281 63.566406 C 159.617188 63.820312 159.242188 64.066406 158.871094 64.316406 C 158.496094 64.5625 158.125 64.816406 157.746094 65.050781 C 156.246094 66.03125 154.707031 66.953125 153.15625 67.847656 C 151.605469 68.746094 150.03125 69.597656 148.46875 70.460938 C 146.902344 71.324219 145.347656 72.191406 143.820312 73.101562 C 143.050781 73.550781 142.289062 74.007812 141.535156 74.472656 C 140.777344 74.929688 140.023438 75.429688 139.273438 75.894531 C 137.769531 76.859375 136.257812 77.816406 134.738281 78.757812 C 133.222656 79.699219 131.714844 80.648438 130.238281 81.636719 C 128.753906 82.613281 127.308594 83.636719 125.910156 84.730469 C 124.507812 85.816406 123.148438 86.96875 121.828125 88.15625 C 121.167969 88.742188 120.507812 89.347656 119.855469 89.957031 C 119.210938 90.566406 118.582031 91.199219 117.964844 91.835938 C 116.730469 93.117188 115.5625 94.457031 114.457031 95.855469 C 113.898438 96.550781 113.367188 97.265625 112.84375 97.988281 C 112.347656 98.671875 111.863281 99.371094 111.410156 100.085938 Z M 111.230469 100.132812 C 112.113281 98.574219 113.105469 97.082031 114.167969 95.636719 C 115.226562 94.1875 116.351562 92.789062 117.550781 91.449219 C 118.148438 90.777344 118.769531 90.132812 119.402344 89.492188 C 120.03125 88.855469 120.65625 88.21875 121.308594 87.597656 C 122.609375 86.355469 123.941406 85.152344 125.335938 84.007812 C 126.730469 82.871094 128.179688 81.796875 129.660156 80.777344 C 131.144531 79.765625 132.652344 78.800781 134.164062 77.839844 L 138.691406 74.980469 C 139.460938 74.503906 140.210938 74.039062 140.988281 73.582031 C 141.765625 73.125 142.539062 72.667969 143.328125 72.238281 C 144.898438 71.371094 146.488281 70.546875 148.082031 69.734375 C 149.675781 68.921875 151.269531 68.125 152.84375 67.285156 C 153.242188 67.078125 153.628906 66.863281 154.019531 66.648438 C 154.410156 66.4375 154.804688 66.222656 155.1875 66.003906 L 156.351562 65.335938 L 157.496094 64.648438 C 157.875 64.421875 158.25 64.179688 158.628906 63.941406 C 159 63.699219 159.378906 63.460938 159.75 63.214844 C 160.488281 62.714844 161.234375 62.230469 161.953125 61.703125 C 162.679688 61.183594 163.40625 60.664062 164.113281 60.125 C 164.824219 59.585938 165.550781 59.058594 166.191406 58.457031 C 167.496094 57.257812 168.707031 55.941406 169.894531 54.617188 C 171.082031 53.28125 172.238281 51.921875 173.375 50.546875 C 174.511719 49.171875 175.632812 47.78125 176.734375 46.375 L 176.917969 46.140625 L 177.085938 46.386719 C 178.382812 48.320312 179.511719 50.34375 180.523438 52.433594 C 181.527344 54.523438 182.398438 56.683594 183.089844 58.90625 C 183.777344 61.128906 184.289062 63.417969 184.519531 65.75 C 184.742188 68.082031 184.691406 70.457031 184.257812 72.78125 C 183.828125 75.105469 182.992188 77.367188 181.78125 79.40625 C 181.175781 80.425781 180.480469 81.394531 179.714844 82.300781 C 178.949219 83.199219 178.105469 84.035156 177.214844 84.8125 C 176.773438 85.203125 176.304688 85.566406 175.839844 85.929688 C 175.363281 86.273438 174.894531 86.628906 174.394531 86.945312 C 174.148438 87.105469 173.914062 87.273438 173.652344 87.429688 L 172.917969 87.882812 C 172.421875 88.183594 171.941406 88.492188 171.433594 88.785156 C 169.433594 89.980469 167.382812 91.0625 165.304688 92.097656 C 163.21875 93.128906 161.097656 94.074219 158.945312 94.945312 C 156.796875 95.820312 154.609375 96.597656 152.402344 97.316406 C 150.195312 98.035156 147.957031 98.65625 145.703125 99.210938 C 143.449219 99.757812 141.175781 100.226562 138.890625 100.605469 C 136.601562 100.988281 134.300781 101.296875 131.988281 101.464844 C 129.675781 101.636719 127.351562 101.71875 125.023438 101.613281 C 123.863281 101.554688 122.699219 101.457031 121.546875 101.246094 C 120.976562 101.144531 120.410156 101.023438 119.847656 100.921875 C 119.28125 100.820312 118.71875 100.71875 118.148438 100.636719 C 117.015625 100.460938 115.871094 100.320312 114.726562 100.230469 C 113.585938 100.15625 112.425781 100.085938 111.292969 100.222656 L 111.167969 100.238281 L 111.230469 100.132812 " fill-opacity="1" fill-rule="nonzero"/><path fill="#000000" d="M 111.3125 100.453125 C 111.3125 100.453125 111.636719 100.375 112.238281 100.230469 C 112.84375 100.082031 113.734375 99.882812 114.859375 99.597656 C 115.417969 99.445312 116.039062 99.28125 116.714844 99.097656 C 117.050781 99.007812 117.398438 98.914062 117.761719 98.816406 C 118.125 98.707031 118.5 98.597656 118.882812 98.480469 C 119.273438 98.367188 119.667969 98.246094 120.082031 98.125 C 120.492188 98.003906 120.914062 97.878906 121.339844 97.730469 C 122.195312 97.441406 123.105469 97.15625 124.042969 96.835938 C 124.972656 96.496094 125.945312 96.144531 126.949219 95.78125 C 127.941406 95.390625 128.972656 94.984375 130.027344 94.570312 C 130.550781 94.347656 131.078125 94.121094 131.617188 93.894531 C 132.148438 93.664062 132.695312 93.445312 133.234375 93.191406 C 133.777344 92.941406 134.324219 92.695312 134.878906 92.441406 C 135.15625 92.3125 135.433594 92.191406 135.710938 92.0625 C 135.988281 91.925781 136.265625 91.792969 136.542969 91.65625 C 137.097656 91.382812 137.660156 91.113281 138.226562 90.839844 C 138.785156 90.558594 139.34375 90.257812 139.910156 89.964844 C 141.042969 89.390625 142.164062 88.75 143.304688 88.128906 C 143.875 87.820312 144.433594 87.476562 144.996094 87.152344 C 145.558594 86.820312 146.132812 86.5 146.6875 86.148438 C 147.800781 85.453125 148.933594 84.769531 150.023438 84.027344 C 152.242188 82.601562 154.386719 81.0625 156.449219 79.492188 C 158.515625 77.921875 160.480469 76.285156 162.335938 74.652344 C 163.246094 73.816406 164.148438 73.003906 164.996094 72.167969 C 165.859375 71.351562 166.660156 70.507812 167.453125 69.695312 C 167.839844 69.285156 168.210938 68.867188 168.582031 68.457031 C 168.765625 68.253906 168.949219 68.054688 169.132812 67.851562 C 169.304688 67.648438 169.480469 67.441406 169.652344 67.238281 C 169.996094 66.832031 170.34375 66.4375 170.667969 66.042969 C 170.984375 65.636719 171.296875 65.242188 171.605469 64.851562 C 171.917969 64.46875 172.195312 64.074219 172.46875 63.691406 C 172.746094 63.304688 173.027344 62.941406 173.277344 62.5625 C 173.769531 61.8125 174.261719 61.113281 174.65625 60.410156 C 174.859375 60.0625 175.0625 59.734375 175.25 59.40625 C 175.425781 59.074219 175.589844 58.753906 175.753906 58.445312 C 176.09375 57.835938 176.332031 57.242188 176.574219 56.71875 C 176.632812 56.589844 176.691406 56.460938 176.75 56.335938 C 176.800781 56.210938 176.84375 56.082031 176.890625 55.964844 C 176.980469 55.722656 177.066406 55.496094 177.144531 55.285156 C 177.222656 55.074219 177.300781 54.882812 177.355469 54.699219 C 177.410156 54.515625 177.457031 54.351562 177.5 54.203125 C 177.671875 53.605469 177.765625 53.285156 177.765625 53.285156 C 177.765625 53.285156 177.695312 53.609375 177.5625 54.21875 C 177.535156 54.371094 177.496094 54.539062 177.457031 54.730469 C 177.414062 54.917969 177.34375 55.113281 177.28125 55.332031 C 177.214844 55.546875 177.148438 55.78125 177.070312 56.03125 C 177.035156 56.152344 177 56.28125 176.953125 56.414062 C 176.90625 56.539062 176.851562 56.671875 176.800781 56.808594 C 176.585938 57.351562 176.378906 57.964844 176.070312 58.597656 C 175.925781 58.917969 175.773438 59.25 175.613281 59.597656 C 175.441406 59.9375 175.25 60.28125 175.0625 60.640625 C 174.699219 61.371094 174.234375 62.101562 173.769531 62.886719 C 173.535156 63.28125 173.261719 63.660156 173.003906 64.058594 C 172.734375 64.460938 172.46875 64.871094 172.167969 65.269531 C 171.015625 66.914062 169.640625 68.589844 168.125 70.3125 C 166.585938 72.019531 164.894531 73.75 163.058594 75.449219 C 162.601562 75.875 162.121094 76.285156 161.652344 76.710938 C 161.414062 76.921875 161.175781 77.136719 160.9375 77.347656 C 160.691406 77.554688 160.449219 77.761719 160.203125 77.96875 C 159.707031 78.382812 159.214844 78.800781 158.710938 79.214844 C 158.203125 79.617188 157.6875 80.019531 157.171875 80.425781 C 155.085938 82.027344 152.929688 83.59375 150.695312 85.050781 C 149.585938 85.792969 148.4375 86.476562 147.308594 87.175781 C 146.746094 87.527344 146.164062 87.84375 145.597656 88.179688 C 145.019531 88.507812 144.457031 88.851562 143.878906 89.15625 C 143.300781 89.46875 142.726562 89.78125 142.15625 90.089844 C 141.585938 90.40625 141 90.683594 140.425781 90.972656 C 139.851562 91.257812 139.285156 91.550781 138.710938 91.828125 C 138.136719 92.097656 137.566406 92.363281 137 92.625 C 136.714844 92.761719 136.433594 92.890625 136.15625 93.023438 C 135.871094 93.152344 135.589844 93.269531 135.308594 93.390625 C 134.746094 93.636719 134.1875 93.875 133.632812 94.109375 C 133.085938 94.355469 132.523438 94.558594 131.980469 94.777344 C 131.433594 94.992188 130.894531 95.207031 130.359375 95.417969 C 129.285156 95.8125 128.238281 96.183594 127.222656 96.546875 C 126.199219 96.875 125.210938 97.195312 124.257812 97.5 C 123.304688 97.785156 122.382812 98.042969 121.507812 98.292969 C 121.070312 98.417969 120.640625 98.527344 120.222656 98.628906 C 119.804688 98.734375 119.398438 98.832031 119.007812 98.929688 C 118.613281 99.027344 118.230469 99.121094 117.863281 99.214844 C 117.496094 99.300781 117.136719 99.371094 116.792969 99.441406 C 116.109375 99.585938 115.476562 99.714844 114.910156 99.832031 C 114.339844 99.957031 113.828125 100.027344 113.382812 100.105469 C 112.9375 100.179688 112.558594 100.242188 112.253906 100.292969 C 111.640625 100.398438 111.3125 100.453125 111.3125 100.453125 " fill-opacity="1" fill-rule="nonzero"/><path fill="#000000" d="M 113.464844 55.5625 C 117.207031 52.257812 122.632812 61.453125 118.742188 64.566406 C 109.328125 72.109375 111.53125 84.492188 112.222656 97.101562 C 112.355469 99.550781 115.84375 105.070312 118 106.058594 C 120.292969 107.109375 108.707031 110.402344 108.707031 110.402344 C 108.707031 110.402344 100.820312 107.527344 102.796875 106.75 C 104.941406 105.902344 110.199219 99.714844 109.890625 97.003906 C 108.265625 82.523438 104.046875 63.882812 113.464844 55.5625 " fill-opacity="1" fill-rule="nonzero"/><path fill="#000000" d="M 113.464844 55.5625 L 113.871094 56.019531 C 114.101562 55.816406 114.324219 55.683594 114.546875 55.59375 C 114.769531 55.507812 114.984375 55.46875 115.207031 55.46875 C 115.664062 55.46875 116.15625 55.636719 116.652344 55.972656 C 117.398438 56.46875 118.121094 57.332031 118.640625 58.332031 C 119.160156 59.332031 119.476562 60.464844 119.476562 61.472656 C 119.476562 62.015625 119.386719 62.519531 119.207031 62.957031 C 119.023438 63.394531 118.75 63.777344 118.363281 64.089844 C 115.3125 66.527344 113.425781 69.492188 112.324219 72.765625 C 111.222656 76.039062 110.890625 79.621094 110.886719 83.363281 C 110.890625 87.796875 111.359375 92.464844 111.613281 97.136719 C 111.632812 97.507812 111.714844 97.902344 111.835938 98.320312 C 112.046875 99.054688 112.390625 99.859375 112.816406 100.6875 C 113.457031 101.929688 114.28125 103.207031 115.136719 104.273438 C 115.566406 104.808594 116.003906 105.289062 116.4375 105.691406 C 116.875 106.089844 117.300781 106.410156 117.746094 106.613281 C 117.773438 106.625 117.785156 106.632812 117.789062 106.636719 L 117.917969 106.46875 L 117.738281 106.574219 C 117.765625 106.621094 117.789062 106.636719 117.789062 106.636719 L 117.917969 106.46875 L 117.738281 106.574219 L 118.046875 106.390625 L 117.691406 106.390625 C 117.691406 106.453125 117.710938 106.527344 117.738281 106.574219 L 118.046875 106.390625 L 117.691406 106.390625 L 117.980469 106.390625 L 117.710938 106.277344 C 117.703125 106.296875 117.691406 106.335938 117.691406 106.390625 L 117.980469 106.390625 L 117.710938 106.277344 L 117.8125 106.320312 L 117.71875 106.261719 L 117.710938 106.277344 L 117.8125 106.320312 L 117.71875 106.261719 L 117.710938 106.273438 C 117.695312 106.292969 117.636719 106.355469 117.546875 106.425781 C 117.375 106.5625 117.089844 106.730469 116.734375 106.910156 C 116.113281 107.226562 115.285156 107.570312 114.394531 107.90625 C 113.0625 108.40625 111.59375 108.882812 110.460938 109.238281 C 109.894531 109.414062 109.414062 109.558594 109.074219 109.65625 C 108.90625 109.707031 108.769531 109.746094 108.679688 109.773438 C 108.585938 109.800781 108.539062 109.816406 108.539062 109.816406 L 108.707031 110.402344 L 108.914062 109.828125 C 108.914062 109.828125 108.890625 109.820312 108.847656 109.804688 C 108.515625 109.679688 106.984375 109.105469 105.554688 108.449219 C 104.84375 108.121094 104.15625 107.773438 103.675781 107.460938 C 103.433594 107.308594 103.246094 107.164062 103.148438 107.0625 C 103.097656 107.015625 103.070312 106.976562 103.070312 106.96875 L 103.066406 106.96875 L 102.855469 107.082031 L 103.089844 107.082031 C 103.089844 107.011719 103.070312 106.972656 103.066406 106.96875 L 102.855469 107.082031 L 103.089844 107.082031 L 102.730469 107.082031 L 103.0625 107.21875 C 103.082031 107.175781 103.089844 107.125 103.089844 107.082031 L 102.730469 107.082031 L 103.0625 107.21875 L 102.800781 107.113281 L 102.980469 107.335938 C 102.992188 107.324219 103.035156 107.289062 103.0625 107.21875 L 102.800781 107.113281 L 102.980469 107.335938 L 102.933594 107.277344 L 102.976562 107.339844 L 102.980469 107.335938 L 102.933594 107.277344 L 102.976562 107.339844 C 102.976562 107.339844 102.988281 107.328125 103.019531 107.316406 C 103.359375 107.183594 103.695312 106.976562 104.058594 106.714844 C 104.695312 106.253906 105.398438 105.609375 106.109375 104.859375 C 107.175781 103.734375 108.253906 102.375 109.082031 101.03125 C 109.496094 100.359375 109.847656 99.699219 110.101562 99.0625 C 110.355469 98.425781 110.511719 97.820312 110.515625 97.238281 C 110.515625 97.136719 110.511719 97.035156 110.5 96.933594 C 109.65625 89.460938 108.144531 80.929688 108.144531 73.328125 C 108.144531 69.742188 108.480469 66.367188 109.367188 63.417969 C 110.257812 60.46875 111.683594 57.953125 113.871094 56.019531 L 113.464844 55.5625 L 113.0625 55.105469 C 110.671875 57.214844 109.132812 59.957031 108.199219 63.066406 C 107.265625 66.179688 106.921875 69.667969 106.921875 73.328125 C 106.925781 81.085938 108.453125 89.652344 109.285156 97.070312 C 109.289062 97.121094 109.292969 97.179688 109.292969 97.238281 C 109.296875 97.5 109.230469 97.84375 109.105469 98.234375 C 108.882812 98.914062 108.464844 99.734375 107.933594 100.570312 C 107.136719 101.828125 106.085938 103.128906 105.078125 104.171875 C 104.574219 104.691406 104.082031 105.144531 103.644531 105.496094 C 103.207031 105.84375 102.816406 106.089844 102.574219 106.179688 C 102.410156 106.246094 102.25 106.332031 102.109375 106.480469 C 102.039062 106.554688 101.976562 106.644531 101.933594 106.753906 C 101.890625 106.855469 101.867188 106.972656 101.867188 107.082031 C 101.871094 107.300781 101.945312 107.472656 102.027344 107.609375 C 102.109375 107.742188 102.199219 107.847656 102.304688 107.945312 C 102.496094 108.136719 102.726562 108.304688 102.992188 108.472656 C 103.453125 108.773438 104.019531 109.070312 104.617188 109.355469 C 106.410156 110.21875 108.488281 110.972656 108.496094 110.976562 C 108.617188 111.019531 108.75 111.023438 108.871094 110.992188 C 108.878906 110.988281 111.285156 110.304688 113.707031 109.453125 C 114.917969 109.027344 116.128906 108.5625 117.066406 108.109375 C 117.539062 107.878906 117.9375 107.660156 118.253906 107.421875 C 118.414062 107.300781 118.554688 107.179688 118.675781 107.023438 C 118.734375 106.945312 118.792969 106.859375 118.835938 106.753906 C 118.878906 106.652344 118.914062 106.527344 118.910156 106.390625 C 118.914062 106.285156 118.890625 106.171875 118.847656 106.070312 C 118.789062 105.917969 118.6875 105.800781 118.582031 105.710938 C 118.480469 105.621094 118.371094 105.554688 118.253906 105.503906 C 118.054688 105.410156 117.800781 105.246094 117.527344 105.019531 C 117.050781 104.625 116.507812 104.042969 115.976562 103.363281 C 115.175781 102.351562 114.398438 101.121094 113.820312 99.964844 C 113.527344 99.382812 113.289062 98.824219 113.117188 98.324219 C 112.945312 97.828125 112.847656 97.386719 112.832031 97.070312 C 112.574219 92.359375 112.109375 87.710938 112.109375 83.363281 C 112.109375 79.691406 112.441406 76.242188 113.480469 73.15625 C 114.527344 70.066406 116.261719 67.339844 119.125 65.042969 C 119.679688 64.597656 120.082031 64.035156 120.332031 63.421875 C 120.585938 62.808594 120.695312 62.144531 120.695312 61.472656 C 120.695312 60.632812 120.527344 59.78125 120.242188 58.960938 C 119.808594 57.734375 119.109375 56.589844 118.253906 55.722656 C 117.824219 55.289062 117.347656 54.925781 116.839844 54.664062 C 116.328125 54.40625 115.777344 54.246094 115.207031 54.246094 C 114.835938 54.246094 114.460938 54.3125 114.097656 54.457031 C 113.734375 54.601562 113.386719 54.820312 113.0625 55.105469 L 113.464844 55.5625 " fill-opacity="1" fill-rule="nonzero"/><g clip-path="url(#0b7c15f432)"><g clip-path="url(#f72b4ac215)"><g clip-path="url(#4afe352a2e)"><path fill="#000000" d="M 196.257812 13.5 L 201.195312 15.175781 C 207.535156 17.800781 212.910156 21.996094 217.320312 27.75 C 219.523438 30.628906 221.488281 33.898438 223.207031 37.558594 L 225.609375 43.34375 C 228.421875 50.988281 229.9375 58.75 230.160156 66.628906 C 230.109375 72.988281 229.917969 76.816406 229.589844 78.121094 C 228.9375 83.273438 227.757812 88.476562 226.046875 93.738281 C 226.148438 93.984375 226.332031 94.144531 226.59375 94.214844 C 227.105469 94.28125 227.558594 94.230469 227.949219 94.074219 C 234.667969 90.941406 239.625 88.953125 242.820312 88.109375 C 246.972656 86.808594 251.269531 85.742188 255.710938 84.910156 C 269.078125 82.238281 278.980469 81.585938 285.421875 82.945312 L 288.78125 83.8125 C 290.953125 84.523438 292.988281 85.5 294.882812 86.746094 C 296.777344 87.992188 298.535156 89.5 300.152344 91.28125 C 303.101562 94.367188 306.070312 99.460938 309.050781 106.566406 C 309.519531 101.730469 308.957031 97.214844 307.359375 93.015625 C 304.992188 86.3125 299.738281 78.929688 291.605469 70.859375 C 287.285156 66.332031 281.988281 61.144531 275.714844 55.292969 C 268.746094 49.605469 262.183594 44.507812 256.03125 40 C 243.734375 30.976562 233.078125 24.300781 224.0625 19.972656 C 219.558594 17.808594 215.460938 16.230469 211.777344 15.242188 C 206.359375 13.980469 201.183594 13.398438 196.257812 13.5 " fill-opacity="1" fill-rule="nonzero"/></g></g></g></svg>